# Blender v2.80 (sub 74) OBJ File: '1.5x1.5_frame.blend'
# www.blender.org
mtllib 1.5x1.5_frame.mtl
o Cube.002
v 0.790002 -0.012502 2.200000
v 0.790002 0.012502 2.200000
v 0.790002 -0.012502 -0.000000
v 0.790002 0.012502 0.000000
v 0.764998 -0.012502 2.200000
v 0.764998 0.012502 2.200000
v 0.764998 -0.012502 -0.000000
v 0.764998 0.012502 0.000000
v 0.790002 0.012502 2.765000
v 0.764998 0.012502 2.765000
v 0.790002 -0.012502 2.765000
v 0.764998 -0.012502 2.765000
v -0.764998 0.755000 0.012502
v -0.764998 0.755000 -0.012502
v -0.764998 -0.755000 0.012502
v -0.764998 -0.755000 -0.012502
v -0.790002 0.755000 0.012502
v -0.790002 0.755000 -0.012502
v -0.790002 -0.755000 0.012502
v -0.790002 -0.755000 -0.012502
v -0.764998 0.755000 -0.012502
v -0.790002 0.755000 -0.012502
v -0.764998 0.755000 0.012502
v -0.790002 0.755000 0.012502
v 0.790002 0.755000 0.012502
v 0.790002 0.755000 -0.012502
v 0.790002 -0.755000 0.012502
v 0.790002 -0.755000 -0.012502
v 0.764998 0.755000 0.012502
v 0.764998 0.755000 -0.012502
v 0.764998 -0.755000 0.012502
v 0.764998 -0.755000 -0.012502
v 0.790002 0.755000 -0.012502
v 0.764998 0.755000 -0.012502
v 0.790002 0.755000 0.012502
v 0.764998 0.755000 0.012502
v -0.764998 -0.012502 2.200000
v -0.764998 0.012502 2.200000
v -0.764998 -0.012502 -0.000000
v -0.764998 0.012502 0.000000
v -0.790002 -0.012502 2.200000
v -0.790002 0.012502 2.200000
v -0.790002 -0.012502 -0.000000
v -0.790002 0.012502 0.000000
v -0.764998 0.012502 2.765000
v -0.790002 0.012502 2.765000
v -0.764998 -0.012502 2.765000
v -0.790002 -0.012502 2.765000
v -0.780000 0.012502 1.165737
v -0.780000 0.012502 1.140733
v 0.780000 0.012502 1.165737
v 0.780000 0.012502 1.140733
v -0.780000 -0.012502 1.165737
v -0.780000 -0.012502 1.140733
v 0.780000 -0.012502 1.165737
v 0.780000 -0.012502 1.140733
v 0.780000 -0.012502 1.140733
v 0.780000 -0.012502 1.165737
v 0.780000 0.012502 1.165737
v 0.780000 0.012502 1.140733
v -0.780000 0.012502 2.755208
v -0.780000 0.012502 2.730204
v 0.780000 0.012502 2.755208
v 0.780000 0.012502 2.730204
v -0.780000 -0.012502 2.755208
v -0.780000 -0.012502 2.730204
v 0.780000 -0.012502 2.755208
v 0.780000 -0.012502 2.730204
v 0.780000 -0.012502 2.730204
v 0.780000 -0.012502 2.755208
v 0.780000 0.012502 2.755208
v 0.780000 0.012502 2.730204
v -0.783463 -0.201067 -0.011065
v -0.783463 -0.218745 0.006613
v -0.783463 0.011065 0.201067
v -0.783463 -0.006613 0.218745
v -0.773463 -0.201067 -0.011065
v -0.773463 -0.218745 0.006613
v -0.773463 0.011065 0.201067
v -0.773463 -0.006613 0.218745
v -0.783463 -0.011065 0.201067
v -0.783463 0.006613 0.218745
v -0.783463 0.201067 -0.011065
v -0.783463 0.218745 0.006613
v -0.773463 -0.011065 0.201067
v -0.773463 0.006613 0.218745
v -0.773463 0.201067 -0.011065
v -0.773463 0.218745 0.006613
v 0.773463 -0.201067 -0.011065
v 0.773463 -0.218745 0.006613
v 0.773463 0.011065 0.201067
v 0.773463 -0.006613 0.218745
v 0.783463 -0.201067 -0.011065
v 0.783463 -0.218745 0.006613
v 0.783463 0.011065 0.201067
v 0.783463 -0.006613 0.218745
v 0.773463 -0.011065 0.201067
v 0.773463 0.006613 0.218745
v 0.773463 0.201067 -0.011065
v 0.773463 0.218745 0.006613
v 0.783463 -0.011065 0.201067
v 0.783463 0.006613 0.218745
v 0.783463 0.201067 -0.011065
v 0.783463 0.218745 0.006613
v -0.792500 -0.015000 1.061004
v -0.792500 -0.015000 1.261004
v -0.792500 0.015000 1.061004
v -0.792500 0.015000 1.261004
v -0.762500 -0.015000 1.061004
v -0.762500 -0.015000 1.261004
v -0.762500 0.015000 1.061004
v -0.762500 0.015000 1.261004
v 0.762500 -0.015000 1.061004
v 0.762500 -0.015000 1.261004
v 0.762500 0.015000 1.061004
v 0.762500 0.015000 1.261004
v 0.792500 -0.015000 1.061004
v 0.792500 -0.015000 1.261004
v 0.792500 0.015000 1.061004
v 0.792500 0.015000 1.261004
v 0.762500 -0.015000 2.575492
v 0.762500 -0.015000 2.775493
v 0.762500 0.015000 2.575492
v 0.762500 0.015000 2.775493
v 0.792500 -0.015000 2.575492
v 0.792500 -0.015000 2.775493
v 0.792500 0.015000 2.575492
v 0.792500 0.015000 2.775493
v -0.792500 -0.015000 2.575492
v -0.792500 -0.015000 2.775493
v -0.792500 0.015000 2.575492
v -0.792500 0.015000 2.775493
v -0.762500 -0.015000 2.575492
v -0.762500 -0.015000 2.775493
v -0.762500 0.015000 2.575492
v -0.762500 0.015000 2.775493
vt 0.625000 0.000000
vt 0.375000 0.250000
vt 0.375000 0.000000
vt 0.625000 0.250000
vt 0.375000 0.500000
vt 0.375000 0.250000
vt 0.625000 0.500000
vt 0.375000 0.750000
vt 0.625000 0.750000
vt 0.375000 1.000000
vt 0.375000 0.500000
vt 0.125000 0.750000
vt 0.125000 0.500000
vt 0.625000 0.750000
vt 0.875000 0.500000
vt 0.625000 0.500000
vt 0.625000 0.000000
vt 0.375000 0.500000
vt 0.625000 0.750000
vt 0.375000 0.750000
vt 0.625000 0.000000
vt 0.375000 0.250000
vt 0.375000 0.000000
vt 0.625000 0.250000
vt 0.375000 0.500000
vt 0.375000 0.250000
vt 0.625000 0.500000
vt 0.375000 0.750000
vt 0.625000 0.750000
vt 0.375000 1.000000
vt 0.375000 0.500000
vt 0.125000 0.750000
vt 0.125000 0.500000
vt 0.625000 0.750000
vt 0.375000 0.750000
vt 0.875000 0.500000
vt 0.625000 0.750000
vt 0.625000 0.500000
vt 0.375000 0.000000
vt 0.625000 0.000000
vt 0.125000 0.500000
vt 0.375000 0.500000
vt 0.625000 0.000000
vt 0.375000 0.250000
vt 0.375000 0.000000
vt 0.625000 0.250000
vt 0.375000 0.500000
vt 0.375000 0.250000
vt 0.625000 0.500000
vt 0.375000 0.750000
vt 0.625000 0.750000
vt 0.375000 1.000000
vt 0.375000 0.500000
vt 0.125000 0.750000
vt 0.125000 0.500000
vt 0.625000 0.750000
vt 0.375000 0.750000
vt 0.875000 0.500000
vt 0.625000 0.750000
vt 0.625000 0.500000
vt 0.375000 0.000000
vt 0.625000 0.000000
vt 0.125000 0.500000
vt 0.375000 0.500000
vt 0.625000 0.000000
vt 0.375000 0.250000
vt 0.375000 0.000000
vt 0.625000 0.250000
vt 0.375000 0.500000
vt 0.375000 0.250000
vt 0.625000 0.500000
vt 0.375000 0.750000
vt 0.625000 0.750000
vt 0.375000 1.000000
vt 0.375000 0.500000
vt 0.125000 0.750000
vt 0.125000 0.500000
vt 0.375000 0.500000
vt 0.875000 0.500000
vt 0.625000 0.750000
vt 0.625000 0.500000
vt 0.625000 0.750000
vt 0.375000 0.750000
vt 0.625000 0.000000
vt 0.625000 0.000000
vt 0.375000 0.250000
vt 0.375000 0.000000
vt 0.625000 0.250000
vt 0.375000 0.250000
vt 0.625000 0.500000
vt 0.375000 0.750000
vt 0.375000 0.500000
vt 0.625000 0.750000
vt 0.375000 1.000000
vt 0.375000 0.500000
vt 0.125000 0.750000
vt 0.125000 0.500000
vt 0.875000 0.500000
vt 0.625000 0.500000
vt 0.625000 0.250000
vt 0.375000 0.500000
vt 0.375000 0.250000
vt 0.375000 0.750000
vt 0.125000 0.750000
vt 0.625000 0.500000
vt 0.625000 1.000000
vt 0.375000 1.000000
vt 0.625000 0.000000
vt 0.375000 0.250000
vt 0.375000 0.000000
vt 0.625000 0.500000
vt 0.375000 0.500000
vt 0.625000 0.500000
vt 0.375000 0.750000
vt 0.375000 0.500000
vt 0.625000 0.750000
vt 0.375000 1.000000
vt 0.375000 0.500000
vt 0.125000 0.750000
vt 0.125000 0.500000
vt 0.875000 0.500000
vt 0.625000 0.500000
vt 0.375000 0.250000
vt 0.625000 1.000000
vt 0.375000 1.000000
vt 0.625000 0.250000
vt 0.375000 0.250000
vt 0.375000 0.750000
vt 0.125000 0.750000
vt 0.375000 0.000000
vt 0.625000 0.250000
vt 0.375000 0.250000
vt 0.375000 0.500000
vt 0.625000 0.750000
vt 0.375000 0.750000
vt 0.375000 1.000000
vt 0.125000 0.750000
vt 0.125000 0.500000
vt 0.875000 0.500000
vt 0.625000 0.500000
vt 0.375000 0.000000
vt 0.625000 0.250000
vt 0.375000 0.250000
vt 0.375000 0.500000
vt 0.625000 0.750000
vt 0.375000 0.750000
vt 0.375000 1.000000
vt 0.125000 0.750000
vt 0.125000 0.500000
vt 0.875000 0.500000
vt 0.625000 0.500000
vt 0.375000 0.000000
vt 0.625000 0.250000
vt 0.375000 0.250000
vt 0.375000 0.500000
vt 0.625000 0.750000
vt 0.375000 0.750000
vt 0.375000 1.000000
vt 0.125000 0.750000
vt 0.125000 0.500000
vt 0.875000 0.500000
vt 0.625000 0.500000
vt 0.375000 0.000000
vt 0.625000 0.250000
vt 0.375000 0.250000
vt 0.375000 0.500000
vt 0.625000 0.750000
vt 0.375000 0.750000
vt 0.375000 1.000000
vt 0.125000 0.750000
vt 0.125000 0.500000
vt 0.875000 0.500000
vt 0.625000 0.500000
vt 0.625000 0.000000
vt 0.375000 0.250000
vt 0.375000 0.000000
vt 0.625000 0.250000
vt 0.375000 0.500000
vt 0.625000 0.500000
vt 0.375000 0.750000
vt 0.625000 0.750000
vt 0.375000 1.000000
vt 0.125000 0.750000
vt 0.125000 0.500000
vt 0.875000 0.500000
vt 0.625000 0.000000
vt 0.375000 0.250000
vt 0.375000 0.000000
vt 0.625000 0.250000
vt 0.375000 0.500000
vt 0.625000 0.500000
vt 0.375000 0.750000
vt 0.625000 0.750000
vt 0.375000 1.000000
vt 0.125000 0.750000
vt 0.125000 0.500000
vt 0.875000 0.500000
vt 0.625000 0.000000
vt 0.375000 0.250000
vt 0.375000 0.000000
vt 0.625000 0.250000
vt 0.375000 0.500000
vt 0.625000 0.500000
vt 0.375000 0.750000
vt 0.625000 0.750000
vt 0.375000 1.000000
vt 0.125000 0.750000
vt 0.125000 0.500000
vt 0.875000 0.500000
vt 0.625000 0.000000
vt 0.375000 0.250000
vt 0.375000 0.000000
vt 0.625000 0.250000
vt 0.375000 0.500000
vt 0.625000 0.500000
vt 0.375000 0.750000
vt 0.625000 0.750000
vt 0.375000 1.000000
vt 0.125000 0.750000
vt 0.125000 0.500000
vt 0.875000 0.500000
vt 0.625000 0.250000
vt 0.625000 1.000000
vt 0.375000 0.750000
vt 0.875000 0.750000
vt 0.375000 0.000000
vt 0.125000 0.500000
vt 0.625000 0.750000
vt 0.625000 0.250000
vt 0.625000 0.750000
vt 0.625000 1.000000
vt 0.375000 0.750000
vt 0.875000 0.750000
vt 0.625000 0.250000
vt 0.625000 0.750000
vt 0.625000 1.000000
vt 0.375000 0.750000
vt 0.875000 0.750000
vt 0.625000 0.250000
vt 0.625000 1.000000
vt 0.375000 0.750000
vt 0.125000 0.500000
vt 0.875000 0.750000
vt 0.625000 0.750000
vt 0.375000 0.000000
vt 0.625000 0.250000
vt 0.625000 0.750000
vt 0.625000 1.000000
vt 0.375000 0.750000
vt 0.875000 0.750000
vt 0.625000 0.250000
vt 0.625000 0.750000
vt 0.625000 1.000000
vt 0.375000 0.750000
vt 0.875000 0.750000
vt 0.625000 0.250000
vt 0.625000 0.000000
vt 0.625000 1.000000
vt 0.875000 0.750000
vt 0.625000 0.000000
vt 0.625000 1.000000
vt 0.875000 0.750000
vt 0.625000 0.000000
vt 0.625000 1.000000
vt 0.875000 0.750000
vt 0.625000 0.000000
vt 0.625000 1.000000
vt 0.875000 0.750000
vt 0.625000 1.000000
vt 0.875000 0.750000
vt 0.625000 1.000000
vt 0.875000 0.750000
vt 0.625000 1.000000
vt 0.875000 0.750000
vt 0.625000 1.000000
vt 0.875000 0.750000
vn 0.0000 -1.0000 -0.0000
vn 0.0000 0.0000 -1.0000
vn -1.0000 0.0000 0.0000
vn 0.0000 1.0000 0.0000
vn 1.0000 0.0000 0.0000
vn 0.0000 0.0000 1.0000
vn 0.0000 0.7071 0.7071
vn 0.0000 -0.7071 -0.7071
vn 0.0000 0.7071 -0.7071
vn 0.0000 -0.7071 0.7071
usemtl Material
s off
f 5/1/1 3/2/1 1/3/1
f 3/4/2 8/5/2 4/6/2
f 7/7/3 6/8/3 8/5/3
f 2/9/4 8/10/4 6/8/4
f 1/11/5 4/12/5 2/13/5
f 6/8/4 9/14/4 2/9/4
f 12/15/6 9/14/6 10/16/6
f 1/3/1 12/17/1 5/1/1
f 2/13/5 11/18/5 1/11/5
f 5/19/3 10/20/3 6/8/3
f 17/21/6 15/22/6 13/23/6
f 15/24/1 20/25/1 16/26/1
f 19/27/3 18/28/3 20/25/3
f 14/29/2 20/30/2 18/28/2
f 13/31/5 16/32/5 14/33/5
f 18/28/6 24/34/6 22/35/6
f 24/36/4 21/37/4 22/38/4
f 14/29/6 22/35/6 21/37/6
f 17/21/6 23/39/6 24/40/6
f 13/31/6 21/41/6 23/42/6
f 29/43/6 27/44/6 25/45/6
f 27/46/1 32/47/1 28/48/1
f 31/49/3 30/50/3 32/47/3
f 26/51/2 32/52/2 30/50/2
f 25/53/5 28/54/5 26/55/5
f 30/50/6 36/56/6 34/57/6
f 36/58/4 33/59/4 34/60/4
f 26/51/6 34/57/6 33/59/6
f 29/43/6 35/61/6 36/62/6
f 25/53/6 33/63/6 35/64/6
f 41/65/1 39/66/1 37/67/1
f 39/68/2 44/69/2 40/70/2
f 43/71/3 42/72/3 44/69/3
f 38/73/4 44/74/4 42/72/4
f 37/75/5 40/76/5 38/77/5
f 38/77/5 47/78/5 37/75/5
f 48/79/6 45/80/6 46/81/6
f 41/82/3 46/83/3 42/72/3
f 42/72/4 45/80/4 38/73/4
f 37/67/1 48/84/1 41/65/1
f 53/85/6 51/86/6 49/87/6
f 51/86/6 58/88/6 59/89/6
f 55/90/1 54/91/1 56/92/1
f 50/93/2 56/94/2 54/91/2
f 49/95/4 52/96/4 50/97/4
f 53/98/3 50/93/3 54/99/3
f 59/100/5 57/101/5 60/102/5
f 52/96/6 59/103/6 60/104/6
f 55/90/6 57/101/6 58/105/6
f 56/94/6 60/106/6 57/107/6
f 65/108/6 63/109/6 61/110/6
f 67/111/6 69/112/6 70/113/6
f 67/111/1 66/114/1 68/115/1
f 62/116/2 68/117/2 66/114/2
f 61/118/4 64/119/4 62/120/4
f 65/121/3 62/116/3 66/122/3
f 72/123/5 70/113/5 69/112/5
f 68/117/6 72/124/6 69/125/6
f 63/109/6 70/126/6 71/127/6
f 64/119/6 71/128/6 72/129/6
f 73/130/3 76/131/3 75/132/3
f 76/131/7 79/133/7 75/132/7
f 79/133/5 78/134/5 77/135/5
f 78/134/8 73/136/8 77/135/8
f 79/133/9 73/137/9 75/138/9
f 76/139/10 78/134/10 80/140/10
f 81/141/3 84/142/3 83/143/3
f 84/142/9 87/144/9 83/143/9
f 87/144/5 86/145/5 85/146/5
f 86/145/10 81/147/10 85/146/10
f 87/144/8 81/148/8 83/149/8
f 84/150/7 86/145/7 88/151/7
f 89/152/3 92/153/3 91/154/3
f 92/153/7 95/155/7 91/154/7
f 95/155/5 94/156/5 93/157/5
f 94/156/8 89/158/8 93/157/8
f 95/155/9 89/159/9 91/160/9
f 92/161/10 94/156/10 96/162/10
f 97/163/3 100/164/3 99/165/3
f 100/164/9 103/166/9 99/165/9
f 103/166/5 102/167/5 101/168/5
f 102/167/10 97/169/10 101/168/10
f 103/166/8 97/170/8 99/171/8
f 100/172/7 102/167/7 104/173/7
f 106/174/3 107/175/3 105/176/3
f 108/177/4 111/178/4 107/175/4
f 112/179/5 109/180/5 111/178/5
f 110/181/1 105/182/1 109/180/1
f 111/178/2 105/183/2 107/184/2
f 108/185/6 110/181/6 112/179/6
f 114/186/3 115/187/3 113/188/3
f 116/189/4 119/190/4 115/187/4
f 120/191/5 117/192/5 119/190/5
f 118/193/1 113/194/1 117/192/1
f 119/190/2 113/195/2 115/196/2
f 116/197/6 118/193/6 120/191/6
f 122/198/3 123/199/3 121/200/3
f 124/201/4 127/202/4 123/199/4
f 128/203/5 125/204/5 127/202/5
f 126/205/1 121/206/1 125/204/1
f 127/202/2 121/207/2 123/208/2
f 124/209/6 126/205/6 128/203/6
f 130/210/3 131/211/3 129/212/3
f 132/213/4 135/214/4 131/211/4
f 136/215/5 133/216/5 135/214/5
f 134/217/1 129/218/1 133/216/1
f 135/214/2 129/219/2 131/220/2
f 132/221/6 134/217/6 136/215/6
f 5/1/1 7/222/1 3/2/1
f 3/4/2 7/7/2 8/5/2
f 7/7/3 5/19/3 6/8/3
f 2/9/4 4/223/4 8/10/4
f 1/11/5 3/224/5 4/12/5
f 6/8/4 10/20/4 9/14/4
f 12/15/6 11/225/6 9/14/6
f 1/3/1 11/226/1 12/17/1
f 2/13/5 9/227/5 11/18/5
f 5/19/3 12/228/3 10/20/3
f 17/21/6 19/229/6 15/22/6
f 15/24/1 19/27/1 20/25/1
f 19/27/3 17/230/3 18/28/3
f 14/29/2 16/231/2 20/30/2
f 13/31/5 15/232/5 16/32/5
f 18/28/6 17/230/6 24/34/6
f 24/36/4 23/233/4 21/37/4
f 14/29/6 18/28/6 22/35/6
f 17/21/6 13/23/6 23/39/6
f 13/31/6 14/33/6 21/41/6
f 29/43/6 31/234/6 27/44/6
f 27/46/1 31/49/1 32/47/1
f 31/49/3 29/235/3 30/50/3
f 26/51/2 28/236/2 32/52/2
f 25/53/5 27/237/5 28/54/5
f 30/50/6 29/235/6 36/56/6
f 36/58/4 35/238/4 33/59/4
f 26/51/6 30/50/6 34/57/6
f 29/43/6 25/45/6 35/61/6
f 25/53/6 26/55/6 33/63/6
f 41/65/1 43/239/1 39/66/1
f 39/68/2 43/71/2 44/69/2
f 43/71/3 41/82/3 42/72/3
f 38/73/4 40/240/4 44/74/4
f 37/75/5 39/241/5 40/76/5
f 38/77/5 45/242/5 47/78/5
f 48/79/6 47/243/6 45/80/6
f 41/82/3 48/244/3 46/83/3
f 42/72/4 46/83/4 45/80/4
f 37/67/1 47/245/1 48/84/1
f 53/85/6 55/246/6 51/86/6
f 51/86/6 55/246/6 58/88/6
f 55/90/1 53/247/1 54/91/1
f 50/93/2 52/248/2 56/94/2
f 49/95/4 51/249/4 52/96/4
f 53/98/3 49/250/3 50/93/3
f 59/100/5 58/105/5 57/101/5
f 52/96/6 51/249/6 59/103/6
f 55/90/6 56/92/6 57/101/6
f 56/94/6 52/248/6 60/106/6
f 65/108/6 67/251/6 63/109/6
f 67/111/6 68/115/6 69/112/6
f 67/111/1 65/252/1 66/114/1
f 62/116/2 64/253/2 68/117/2
f 61/118/4 63/254/4 64/119/4
f 65/121/3 61/255/3 62/116/3
f 72/123/5 71/256/5 70/113/5
f 68/117/6 64/253/6 72/124/6
f 63/109/6 67/251/6 70/126/6
f 64/119/6 63/254/6 71/128/6
f 73/130/3 74/257/3 76/131/3
f 76/131/7 80/140/7 79/133/7
f 79/133/5 80/140/5 78/134/5
f 78/134/8 74/258/8 73/136/8
f 79/133/9 77/135/9 73/137/9
f 76/139/10 74/259/10 78/134/10
f 81/141/3 82/260/3 84/142/3
f 84/142/9 88/151/9 87/144/9
f 87/144/5 88/151/5 86/145/5
f 86/145/10 82/261/10 81/147/10
f 87/144/8 85/146/8 81/148/8
f 84/150/7 82/262/7 86/145/7
f 89/152/3 90/263/3 92/153/3
f 92/153/7 96/162/7 95/155/7
f 95/155/5 96/162/5 94/156/5
f 94/156/8 90/264/8 89/158/8
f 95/155/9 93/157/9 89/159/9
f 92/161/10 90/265/10 94/156/10
f 97/163/3 98/266/3 100/164/3
f 100/164/9 104/173/9 103/166/9
f 103/166/5 104/173/5 102/167/5
f 102/167/10 98/267/10 97/169/10
f 103/166/8 101/168/8 97/170/8
f 100/172/7 98/268/7 102/167/7
f 106/174/3 108/177/3 107/175/3
f 108/177/4 112/179/4 111/178/4
f 112/179/5 110/181/5 109/180/5
f 110/181/1 106/269/1 105/182/1
f 111/178/2 109/180/2 105/183/2
f 108/185/6 106/270/6 110/181/6
f 114/186/3 116/189/3 115/187/3
f 116/189/4 120/191/4 119/190/4
f 120/191/5 118/193/5 117/192/5
f 118/193/1 114/271/1 113/194/1
f 119/190/2 117/192/2 113/195/2
f 116/197/6 114/272/6 118/193/6
f 122/198/3 124/201/3 123/199/3
f 124/201/4 128/203/4 127/202/4
f 128/203/5 126/205/5 125/204/5
f 126/205/1 122/273/1 121/206/1
f 127/202/2 125/204/2 121/207/2
f 124/209/6 122/274/6 126/205/6
f 130/210/3 132/213/3 131/211/3
f 132/213/4 136/215/4 135/214/4
f 136/215/5 134/217/5 133/216/5
f 134/217/1 130/275/1 129/218/1
f 135/214/2 133/216/2 129/219/2
f 132/221/6 130/276/6 134/217/6
