# Blender v2.80 (sub 45) OBJ File: 'gate.blend'
# www.blender.org
o Cube.002
v 0.790002 -0.012502 2.200000
v 0.790002 0.012502 2.200000
v 0.790002 -0.012502 -0.000000
v 0.790002 0.012502 0.000000
v 0.764998 -0.012502 2.200000
v 0.764998 0.012502 2.200000
v 0.764998 -0.012502 -0.000000
v 0.764998 0.012502 0.000000
v 0.790002 0.012502 2.765000
v 0.764998 0.012502 2.765000
v 0.790002 -0.012502 2.765000
v 0.764998 -0.012502 2.765000
v 0.790002 0.012502 2.973040
v 0.764998 0.012502 2.973040
v 0.790002 -0.012502 2.973040
v 0.764998 -0.012502 2.973040
v -0.764998 0.755000 0.012502
v -0.764998 0.755000 -0.012502
v -0.764998 -0.755000 0.012502
v -0.764998 -0.755000 -0.012502
v -0.790002 0.755000 0.012502
v -0.790002 0.755000 -0.012502
v -0.790002 -0.755000 0.012502
v -0.790002 -0.755000 -0.012502
v -0.764998 0.755000 -0.012502
v -0.790002 0.755000 -0.012502
v -0.764998 0.755000 0.012502
v -0.790002 0.755000 0.012502
v 0.790002 0.755000 0.012502
v 0.790002 0.755000 -0.012502
v 0.790002 -0.755000 0.012502
v 0.790002 -0.755000 -0.012502
v 0.764998 0.755000 0.012502
v 0.764998 0.755000 -0.012502
v 0.764998 -0.755000 0.012502
v 0.764998 -0.755000 -0.012502
v 0.790002 0.755000 -0.012502
v 0.764998 0.755000 -0.012502
v 0.790002 0.755000 0.012502
v 0.764998 0.755000 0.012502
v -0.764998 -0.012502 2.200000
v -0.764998 0.012502 2.200000
v -0.764998 -0.012502 -0.000000
v -0.764998 0.012502 0.000000
v -0.790002 -0.012502 2.200000
v -0.790002 0.012502 2.200000
v -0.790002 -0.012502 -0.000000
v -0.790002 0.012502 0.000000
v -0.764998 0.012502 2.765000
v -0.790002 0.012502 2.765000
v -0.764998 -0.012502 2.765000
v -0.790002 -0.012502 2.765000
v -0.764998 0.012502 2.985847
v -0.790002 0.012502 2.985847
v -0.764998 -0.012502 2.985847
v -0.790002 -0.012502 2.985847
v -0.780000 0.012502 2.207421
v -0.780000 0.012502 2.182418
v 0.780000 0.012502 2.207421
v 0.780000 0.012502 2.182418
v -0.780000 -0.012502 2.207421
v -0.780000 -0.012502 2.182418
v 0.780000 -0.012502 2.207421
v 0.780000 -0.012502 2.182418
v 0.780000 -0.012502 2.182418
v 0.780000 -0.012502 2.207421
v 0.780000 0.012502 2.207421
v 0.780000 0.012502 2.182418
v -0.780000 0.012502 3.112502
v -0.780000 0.012502 3.087498
v 0.780000 0.012502 3.112502
v 0.780000 0.012502 3.087498
v -0.780000 -0.012502 3.112502
v -0.780000 -0.012502 3.087498
v 0.780000 -0.012502 3.112502
v 0.780000 -0.012502 3.087498
v 0.780000 -0.012502 3.087498
v 0.780000 -0.012502 3.112502
v 0.780000 0.012502 3.112502
v 0.780000 0.012502 3.087498
v -0.783463 -0.201067 -0.011065
v -0.783463 -0.218745 0.006613
v -0.783463 0.011065 0.201067
v -0.783463 -0.006613 0.218745
v -0.773463 -0.201067 -0.011065
v -0.773463 -0.218745 0.006613
v -0.773463 0.011065 0.201067
v -0.773463 -0.006613 0.218745
v -0.783463 -0.011065 0.201067
v -0.783463 0.006613 0.218745
v -0.783463 0.201067 -0.011065
v -0.783463 0.218745 0.006613
v -0.773463 -0.011065 0.201067
v -0.773463 0.006613 0.218745
v -0.773463 0.201067 -0.011065
v -0.773463 0.218745 0.006613
v 0.773463 -0.201067 -0.011065
v 0.773463 -0.218745 0.006613
v 0.773463 0.011065 0.201067
v 0.773463 -0.006613 0.218745
v 0.783463 -0.201067 -0.011065
v 0.783463 -0.218745 0.006613
v 0.783463 0.011065 0.201067
v 0.783463 -0.006613 0.218745
v 0.773463 -0.011065 0.201067
v 0.773463 0.006613 0.218745
v 0.773463 0.201067 -0.011065
v 0.773463 0.218745 0.006613
v 0.783463 -0.011065 0.201067
v 0.783463 0.006613 0.218745
v 0.783463 0.201067 -0.011065
v 0.783463 0.218745 0.006613
v -0.792500 -0.015000 2.096217
v -0.792500 -0.015000 2.296216
v -0.792500 0.015000 2.096217
v -0.792500 0.015000 2.296216
v -0.762500 -0.015000 2.096217
v -0.762500 -0.015000 2.296216
v -0.762500 0.015000 2.096217
v -0.762500 0.015000 2.296216
v 0.762500 -0.015000 2.100000
v 0.762500 -0.015000 2.300000
v 0.762500 0.015000 2.100000
v 0.762500 0.015000 2.300000
v 0.792500 -0.015000 2.100000
v 0.792500 -0.015000 2.300000
v 0.792500 0.015000 2.100000
v 0.792500 0.015000 2.300000
v 0.762500 -0.015000 2.925336
v 0.762500 -0.015000 3.125337
v 0.762500 0.015000 2.925336
v 0.762500 0.015000 3.125337
v 0.792500 -0.015000 2.925336
v 0.792500 -0.015000 3.125337
v 0.792500 0.015000 2.925336
v 0.792500 0.015000 3.125337
v -0.792500 -0.015000 2.925336
v -0.792500 -0.015000 3.125337
v -0.792500 0.015000 2.925336
v -0.792500 0.015000 3.125337
v -0.762500 -0.015000 2.925336
v -0.762500 -0.015000 3.125337
v -0.762500 0.015000 2.925336
v -0.762500 0.015000 3.125337
vt 0.625000 0.000000
vt 0.375000 0.250000
vt 0.375000 0.000000
vt 0.625000 0.250000
vt 0.375000 0.500000
vt 0.375000 0.250000
vt 0.625000 0.500000
vt 0.375000 0.750000
vt 0.625000 0.750000
vt 0.375000 1.000000
vt 0.375000 0.500000
vt 0.125000 0.750000
vt 0.125000 0.500000
vt 0.625000 0.750000
vt 0.375000 0.000000
vt 0.625000 0.000000
vt 0.625000 0.000000
vt 0.375000 0.500000
vt 0.625000 0.750000
vt 0.375000 0.750000
vt 0.875000 0.500000
vt 0.625000 0.750000
vt 0.625000 0.500000
vt 0.125000 0.500000
vt 0.375000 0.500000
vt 0.625000 0.750000
vt 0.375000 0.750000
vt 0.625000 0.000000
vt 0.375000 0.250000
vt 0.375000 0.000000
vt 0.625000 0.250000
vt 0.375000 0.500000
vt 0.375000 0.250000
vt 0.625000 0.500000
vt 0.375000 0.750000
vt 0.625000 0.750000
vt 0.375000 1.000000
vt 0.375000 0.500000
vt 0.125000 0.750000
vt 0.125000 0.500000
vt 0.625000 0.750000
vt 0.375000 0.750000
vt 0.875000 0.500000
vt 0.625000 0.750000
vt 0.625000 0.500000
vt 0.375000 0.000000
vt 0.625000 0.000000
vt 0.125000 0.500000
vt 0.375000 0.500000
vt 0.625000 0.000000
vt 0.375000 0.250000
vt 0.375000 0.000000
vt 0.625000 0.250000
vt 0.375000 0.500000
vt 0.375000 0.250000
vt 0.625000 0.500000
vt 0.375000 0.750000
vt 0.625000 0.750000
vt 0.375000 1.000000
vt 0.375000 0.500000
vt 0.125000 0.750000
vt 0.125000 0.500000
vt 0.625000 0.750000
vt 0.375000 0.750000
vt 0.875000 0.500000
vt 0.625000 0.750000
vt 0.625000 0.500000
vt 0.375000 0.000000
vt 0.625000 0.000000
vt 0.125000 0.500000
vt 0.375000 0.500000
vt 0.625000 0.000000
vt 0.375000 0.250000
vt 0.375000 0.000000
vt 0.625000 0.250000
vt 0.375000 0.500000
vt 0.375000 0.250000
vt 0.625000 0.500000
vt 0.375000 0.750000
vt 0.625000 0.750000
vt 0.375000 1.000000
vt 0.375000 0.500000
vt 0.125000 0.750000
vt 0.125000 0.500000
vt 0.375000 0.500000
vt 0.625000 0.750000
vt 0.375000 0.750000
vt 0.375000 0.750000
vt 0.625000 0.750000
vt 0.625000 0.750000
vt 0.625000 0.000000
vt 0.875000 0.500000
vt 0.625000 0.750000
vt 0.625000 0.500000
vt 0.375000 0.000000
vt 0.625000 0.000000
vt 0.125000 0.500000
vt 0.375000 0.500000
vt 0.625000 0.000000
vt 0.375000 0.250000
vt 0.375000 0.000000
vt 0.625000 0.250000
vt 0.375000 0.250000
vt 0.625000 0.500000
vt 0.375000 0.750000
vt 0.375000 0.500000
vt 0.625000 0.750000
vt 0.375000 1.000000
vt 0.375000 0.500000
vt 0.125000 0.750000
vt 0.125000 0.500000
vt 0.875000 0.500000
vt 0.625000 0.500000
vt 0.625000 0.250000
vt 0.375000 0.500000
vt 0.375000 0.250000
vt 0.375000 0.750000
vt 0.125000 0.750000
vt 0.625000 0.500000
vt 0.625000 1.000000
vt 0.375000 1.000000
vt 0.625000 0.000000
vt 0.375000 0.250000
vt 0.375000 0.000000
vt 0.625000 0.500000
vt 0.375000 0.500000
vt 0.625000 0.500000
vt 0.375000 0.750000
vt 0.375000 0.500000
vt 0.625000 0.750000
vt 0.375000 1.000000
vt 0.375000 0.500000
vt 0.125000 0.750000
vt 0.125000 0.500000
vt 0.875000 0.500000
vt 0.625000 0.500000
vt 0.625000 0.250000
vt 0.375000 0.250000
vt 0.625000 1.000000
vt 0.375000 1.000000
vt 0.625000 0.250000
vt 0.375000 0.250000
vt 0.375000 0.750000
vt 0.125000 0.750000
vt 0.625000 0.000000
vt 0.375000 0.250000
vt 0.375000 0.000000
vt 0.625000 0.250000
vt 0.375000 0.500000
vt 0.625000 0.500000
vt 0.375000 0.750000
vt 0.625000 0.750000
vt 0.375000 1.000000
vt 0.125000 0.750000
vt 0.125000 0.500000
vt 0.875000 0.500000
vt 0.375000 0.000000
vt 0.625000 0.250000
vt 0.375000 0.250000
vt 0.375000 0.500000
vt 0.625000 0.750000
vt 0.375000 0.750000
vt 0.375000 1.000000
vt 0.125000 0.750000
vt 0.125000 0.500000
vt 0.875000 0.500000
vt 0.625000 0.500000
vt 0.625000 0.000000
vt 0.375000 0.250000
vt 0.375000 0.000000
vt 0.625000 0.250000
vt 0.375000 0.500000
vt 0.625000 0.500000
vt 0.375000 0.750000
vt 0.625000 0.750000
vt 0.375000 1.000000
vt 0.125000 0.750000
vt 0.125000 0.500000
vt 0.875000 0.500000
vt 0.375000 0.000000
vt 0.625000 0.250000
vt 0.375000 0.250000
vt 0.375000 0.500000
vt 0.625000 0.750000
vt 0.375000 0.750000
vt 0.375000 1.000000
vt 0.125000 0.750000
vt 0.125000 0.500000
vt 0.875000 0.500000
vt 0.625000 0.500000
vt 0.625000 0.000000
vt 0.375000 0.250000
vt 0.375000 0.000000
vt 0.625000 0.250000
vt 0.375000 0.500000
vt 0.625000 0.500000
vt 0.375000 0.750000
vt 0.625000 0.750000
vt 0.375000 1.000000
vt 0.125000 0.750000
vt 0.125000 0.500000
vt 0.875000 0.500000
vt 0.625000 0.000000
vt 0.375000 0.250000
vt 0.375000 0.000000
vt 0.625000 0.250000
vt 0.375000 0.500000
vt 0.625000 0.500000
vt 0.375000 0.750000
vt 0.625000 0.750000
vt 0.375000 1.000000
vt 0.125000 0.750000
vt 0.125000 0.500000
vt 0.875000 0.500000
vt 0.625000 0.000000
vt 0.375000 0.250000
vt 0.375000 0.000000
vt 0.625000 0.250000
vt 0.375000 0.500000
vt 0.625000 0.500000
vt 0.375000 0.750000
vt 0.625000 0.750000
vt 0.375000 1.000000
vt 0.125000 0.750000
vt 0.125000 0.500000
vt 0.875000 0.500000
vt 0.625000 0.000000
vt 0.375000 0.250000
vt 0.375000 0.000000
vt 0.625000 0.250000
vt 0.375000 0.500000
vt 0.625000 0.500000
vt 0.375000 0.750000
vt 0.625000 0.750000
vt 0.375000 1.000000
vt 0.125000 0.750000
vt 0.125000 0.500000
vt 0.875000 0.500000
vt 0.625000 0.250000
vt 0.625000 1.000000
vt 0.375000 0.750000
vt 0.375000 0.000000
vt 0.875000 0.750000
vt 0.125000 0.500000
vt 0.625000 0.750000
vt 0.625000 0.250000
vt 0.625000 0.750000
vt 0.625000 1.000000
vt 0.375000 0.750000
vt 0.875000 0.750000
vt 0.625000 0.250000
vt 0.625000 0.750000
vt 0.625000 1.000000
vt 0.375000 0.750000
vt 0.875000 0.750000
vt 0.625000 0.250000
vt 0.625000 1.000000
vt 0.375000 0.750000
vt 0.625000 0.750000
vt 0.875000 0.750000
vt 0.375000 0.000000
vt 0.125000 0.500000
vt 0.625000 0.250000
vt 0.625000 0.750000
vt 0.625000 1.000000
vt 0.375000 0.750000
vt 0.875000 0.750000
vt 0.625000 0.250000
vt 0.625000 0.750000
vt 0.625000 1.000000
vt 0.375000 0.750000
vt 0.875000 0.750000
vt 0.625000 1.000000
vt 0.875000 0.750000
vt 0.625000 0.000000
vt 0.625000 1.000000
vt 0.875000 0.750000
vt 0.625000 1.000000
vt 0.875000 0.750000
vt 0.625000 0.000000
vt 0.625000 1.000000
vt 0.875000 0.750000
vt 0.625000 1.000000
vt 0.875000 0.750000
vt 0.625000 1.000000
vt 0.875000 0.750000
vt 0.625000 1.000000
vt 0.875000 0.750000
vt 0.625000 1.000000
vt 0.875000 0.750000
vn 0.0000 -1.0000 -0.0000
vn 0.0000 0.0000 -1.0000
vn -1.0000 0.0000 0.0000
vn 0.0000 1.0000 0.0000
vn 1.0000 0.0000 0.0000
vn 0.0000 0.0000 1.0000
vn 0.0000 0.7071 0.7071
vn 0.0000 -0.7071 -0.7071
vn 0.0000 0.7071 -0.7071
vn 0.0000 -0.7071 0.7071
s off
f 5/1/1 3/2/1 1/3/1
f 3/4/2 8/5/2 4/6/2
f 7/7/3 6/8/3 8/5/3
f 2/9/4 8/10/4 6/8/4
f 1/11/5 4/12/5 2/13/5
f 6/8/4 9/14/4 2/9/4
f 11/15/1 16/16/1 12/17/1
f 1/3/1 12/17/1 5/1/1
f 2/13/5 11/18/5 1/11/5
f 5/19/3 10/20/3 6/8/3
f 16/21/6 13/22/6 14/23/6
f 9/24/5 15/25/5 11/18/5
f 12/26/3 14/27/3 10/20/3
f 10/20/4 13/22/4 9/14/4
f 21/28/6 19/29/6 17/30/6
f 19/31/1 24/32/1 20/33/1
f 23/34/3 22/35/3 24/32/3
f 18/36/2 24/37/2 22/35/2
f 17/38/5 20/39/5 18/40/5
f 22/35/6 28/41/6 26/42/6
f 28/43/4 25/44/4 26/45/4
f 18/36/6 26/42/6 25/44/6
f 21/28/6 27/46/6 28/47/6
f 17/38/6 25/48/6 27/49/6
f 33/50/6 31/51/6 29/52/6
f 31/53/1 36/54/1 32/55/1
f 35/56/3 34/57/3 36/54/3
f 30/58/2 36/59/2 34/57/2
f 29/60/5 32/61/5 30/62/5
f 34/57/6 40/63/6 38/64/6
f 40/65/4 37/66/4 38/67/4
f 30/58/6 38/64/6 37/66/6
f 33/50/6 39/68/6 40/69/6
f 29/60/6 37/70/6 39/71/6
f 45/72/1 43/73/1 41/74/1
f 43/75/2 48/76/2 44/77/2
f 47/78/3 46/79/3 48/76/3
f 42/80/4 48/81/4 46/79/4
f 41/82/5 44/83/5 42/84/5
f 42/84/5 51/85/5 41/82/5
f 52/86/3 54/87/3 50/88/3
f 45/89/3 50/88/3 46/79/3
f 46/79/4 49/90/4 42/80/4
f 41/74/1 52/91/1 45/72/1
f 56/92/6 53/93/6 54/94/6
f 50/88/4 53/93/4 49/90/4
f 51/95/1 56/96/1 52/91/1
f 49/97/5 55/98/5 51/85/5
f 61/99/6 59/100/6 57/101/6
f 59/100/6 66/102/6 67/103/6
f 63/104/1 62/105/1 64/106/1
f 58/107/2 64/108/2 62/105/2
f 57/109/4 60/110/4 58/111/4
f 61/112/3 58/107/3 62/113/3
f 67/114/5 65/115/5 68/116/5
f 60/110/6 67/117/6 68/118/6
f 63/104/6 65/115/6 66/119/6
f 64/108/6 68/120/6 65/121/6
f 73/122/6 71/123/6 69/124/6
f 75/125/6 77/126/6 78/127/6
f 75/125/1 74/128/1 76/129/1
f 70/130/2 76/131/2 74/128/2
f 69/132/4 72/133/4 70/134/4
f 73/135/3 70/130/3 74/136/3
f 79/137/5 77/126/5 80/138/5
f 76/131/6 80/139/6 77/140/6
f 71/123/6 78/141/6 79/142/6
f 72/133/6 79/143/6 80/144/6
f 82/145/3 83/146/3 81/147/3
f 84/148/7 87/149/7 83/146/7
f 88/150/5 85/151/5 87/149/5
f 86/152/8 81/153/8 85/151/8
f 87/149/9 81/154/9 83/155/9
f 84/156/10 86/152/10 88/150/10
f 89/157/3 92/158/3 91/159/3
f 92/158/9 95/160/9 91/159/9
f 95/160/5 94/161/5 93/162/5
f 94/161/10 89/163/10 93/162/10
f 95/160/8 89/164/8 91/165/8
f 92/166/7 94/161/7 96/167/7
f 98/168/3 99/169/3 97/170/3
f 100/171/7 103/172/7 99/169/7
f 104/173/5 101/174/5 103/172/5
f 102/175/8 97/176/8 101/174/8
f 103/172/9 97/177/9 99/178/9
f 100/179/10 102/175/10 104/173/10
f 105/180/3 108/181/3 107/182/3
f 108/181/9 111/183/9 107/182/9
f 111/183/5 110/184/5 109/185/5
f 110/184/10 105/186/10 109/185/10
f 111/183/8 105/187/8 107/188/8
f 108/189/7 110/184/7 112/190/7
f 114/191/3 115/192/3 113/193/3
f 116/194/4 119/195/4 115/192/4
f 120/196/5 117/197/5 119/195/5
f 118/198/1 113/199/1 117/197/1
f 119/195/2 113/200/2 115/201/2
f 116/202/6 118/198/6 120/196/6
f 122/203/3 123/204/3 121/205/3
f 124/206/4 127/207/4 123/204/4
f 128/208/5 125/209/5 127/207/5
f 126/210/1 121/211/1 125/209/1
f 127/207/2 121/212/2 123/213/2
f 124/214/6 126/210/6 128/208/6
f 130/215/3 131/216/3 129/217/3
f 132/218/4 135/219/4 131/216/4
f 136/220/5 133/221/5 135/219/5
f 134/222/1 129/223/1 133/221/1
f 135/219/2 129/224/2 131/225/2
f 132/226/6 134/222/6 136/220/6
f 138/227/3 139/228/3 137/229/3
f 140/230/4 143/231/4 139/228/4
f 144/232/5 141/233/5 143/231/5
f 142/234/1 137/235/1 141/233/1
f 143/231/2 137/236/2 139/237/2
f 140/238/6 142/234/6 144/232/6
f 5/1/1 7/239/1 3/2/1
f 3/4/2 7/7/2 8/5/2
f 7/7/3 5/19/3 6/8/3
f 2/9/4 4/240/4 8/10/4
f 1/11/5 3/241/5 4/12/5
f 6/8/4 10/20/4 9/14/4
f 11/15/1 15/242/1 16/16/1
f 1/3/1 11/15/1 12/17/1
f 2/13/5 9/24/5 11/18/5
f 5/19/3 12/26/3 10/20/3
f 16/21/6 15/243/6 13/22/6
f 9/24/5 13/244/5 15/25/5
f 12/26/3 16/245/3 14/27/3
f 10/20/4 14/27/4 13/22/4
f 21/28/6 23/246/6 19/29/6
f 19/31/1 23/34/1 24/32/1
f 23/34/3 21/247/3 22/35/3
f 18/36/2 20/248/2 24/37/2
f 17/38/5 19/249/5 20/39/5
f 22/35/6 21/247/6 28/41/6
f 28/43/4 27/250/4 25/44/4
f 18/36/6 22/35/6 26/42/6
f 21/28/6 17/30/6 27/46/6
f 17/38/6 18/40/6 25/48/6
f 33/50/6 35/251/6 31/51/6
f 31/53/1 35/56/1 36/54/1
f 35/56/3 33/252/3 34/57/3
f 30/58/2 32/253/2 36/59/2
f 29/60/5 31/254/5 32/61/5
f 34/57/6 33/252/6 40/63/6
f 40/65/4 39/255/4 37/66/4
f 30/58/6 34/57/6 38/64/6
f 33/50/6 29/52/6 39/68/6
f 29/60/6 30/62/6 37/70/6
f 45/72/1 47/256/1 43/73/1
f 43/75/2 47/78/2 48/76/2
f 47/78/3 45/89/3 46/79/3
f 42/80/4 44/257/4 48/81/4
f 41/82/5 43/258/5 44/83/5
f 42/84/5 49/97/5 51/85/5
f 52/86/3 56/259/3 54/87/3
f 45/89/3 52/86/3 50/88/3
f 46/79/4 50/88/4 49/90/4
f 41/74/1 51/95/1 52/91/1
f 56/92/6 55/260/6 53/93/6
f 50/88/4 54/87/4 53/93/4
f 51/95/1 55/261/1 56/96/1
f 49/97/5 53/262/5 55/98/5
f 61/99/6 63/263/6 59/100/6
f 59/100/6 63/263/6 66/102/6
f 63/104/1 61/264/1 62/105/1
f 58/107/2 60/265/2 64/108/2
f 57/109/4 59/266/4 60/110/4
f 61/112/3 57/267/3 58/107/3
f 67/114/5 66/119/5 65/115/5
f 60/110/6 59/266/6 67/117/6
f 63/104/6 64/106/6 65/115/6
f 64/108/6 60/265/6 68/120/6
f 73/122/6 75/268/6 71/123/6
f 75/125/6 76/129/6 77/126/6
f 75/125/1 73/269/1 74/128/1
f 70/130/2 72/270/2 76/131/2
f 69/132/4 71/271/4 72/133/4
f 73/135/3 69/272/3 70/130/3
f 79/137/5 78/127/5 77/126/5
f 76/131/6 72/270/6 80/139/6
f 71/123/6 75/268/6 78/141/6
f 72/133/6 71/271/6 79/143/6
f 82/145/3 84/148/3 83/146/3
f 84/148/7 88/150/7 87/149/7
f 88/150/5 86/152/5 85/151/5
f 86/152/8 82/273/8 81/153/8
f 87/149/9 85/151/9 81/154/9
f 84/156/10 82/274/10 86/152/10
f 89/157/3 90/275/3 92/158/3
f 92/158/9 96/167/9 95/160/9
f 95/160/5 96/167/5 94/161/5
f 94/161/10 90/276/10 89/163/10
f 95/160/8 93/162/8 89/164/8
f 92/166/7 90/277/7 94/161/7
f 98/168/3 100/171/3 99/169/3
f 100/171/7 104/173/7 103/172/7
f 104/173/5 102/175/5 101/174/5
f 102/175/8 98/278/8 97/176/8
f 103/172/9 101/174/9 97/177/9
f 100/179/10 98/279/10 102/175/10
f 105/180/3 106/280/3 108/181/3
f 108/181/9 112/190/9 111/183/9
f 111/183/5 112/190/5 110/184/5
f 110/184/10 106/281/10 105/186/10
f 111/183/8 109/185/8 105/187/8
f 108/189/7 106/282/7 110/184/7
f 114/191/3 116/194/3 115/192/3
f 116/194/4 120/196/4 119/195/4
f 120/196/5 118/198/5 117/197/5
f 118/198/1 114/283/1 113/199/1
f 119/195/2 117/197/2 113/200/2
f 116/202/6 114/284/6 118/198/6
f 122/203/3 124/206/3 123/204/3
f 124/206/4 128/208/4 127/207/4
f 128/208/5 126/210/5 125/209/5
f 126/210/1 122/285/1 121/211/1
f 127/207/2 125/209/2 121/212/2
f 124/214/6 122/286/6 126/210/6
f 130/215/3 132/218/3 131/216/3
f 132/218/4 136/220/4 135/219/4
f 136/220/5 134/222/5 133/221/5
f 134/222/1 130/287/1 129/223/1
f 135/219/2 133/221/2 129/224/2
f 132/226/6 130/288/6 134/222/6
f 138/227/3 140/230/3 139/228/3
f 140/230/4 144/232/4 143/231/4
f 144/232/5 142/234/5 141/233/5
f 142/234/1 138/289/1 137/235/1
f 143/231/2 141/233/2 137/236/2
f 140/238/6 138/290/6 142/234/6
